#!OML:ASF F:\VICON\USERDATA\INSTALL\rory3\rory3.ASF
:FULLY-SPECIFIED
:DEGREES
700
root 5.75112 16.8872 -0.992196 -0.198294 -49.8129 1.49638
lowerback 11.1707 -1.69646 -5.94207
upperback 1.54585 -2.84439 3.45096
thorax -4.17033 -1.31998 7.42852
lowerneck -13.9068 -1.70147 -10.2781
upperneck 25.3023 -3.04686 10.8894
head 10.7129 -1.2235 5.30461
rclavicle 5.96354e-015 1.27222e-014
rhumerus 4.17835 -10.5241 -66.6594
rradius 138.042
rwrist -6.87812
rhand -15.4952 22.6427
rfingers 7.12502
rthumb 10.6871 -7.06552
lclavicle 5.96354e-015 1.27222e-014
lhumerus 12.042 -10.7009 84.0108
lradius 126.388
lwrist -6.07021
lhand -11.5571 7.40694
lfingers 7.12502
lthumb 14.4838 36.8814
rfemur -29.7314 -6.69798 7.02179
rtibia 62.3672
rfoot -15.8043 -2.54816
rtoes -4.72265
lfemur -13.5149 10.704 -15.6283
ltibia 47.9926
lfoot -22.176 12.4662
ltoes -22.5593
701
root 5.80522 16.8715 -0.981754 -1.15175 -50.7461 2.87026
lowerback 10.7916 -1.70227 -6.50632
upperback 1.51458 -2.91349 3.04055
thorax -3.97433 -1.35384 7.29877
lowerneck -13.8487 -1.78796 -9.89259
upperneck 25.5166 -3.29865 10.8464
head 10.8059 -1.31522 5.19505
rclavicle -5.96354e-015 -1.98785e-014
rhumerus 4.47281 -11.1212 -67.0239
rradius 138.403
rwrist -5.51615
rhand -16.5192 23.0193
rfingers 7.12502
rthumb 9.69921 -6.73738
lclavicle -5.96354e-015 -1.98785e-014
lhumerus 12.6051 -10.3782 83.5859
lradius 126.297
lwrist -6.15603
lhand -11.9378 6.76171
lfingers 7.12502
lthumb 14.1169 36.2622
rfemur -29.9315 -7.68994 6.65312
rtibia 64.2152
rfoot -15.3091 -2.10436
rtoes -8.28576
lfemur -13.5882 11.1153 -16.7843
ltibia 48.0904
lfoot -22.1954 12.8635
ltoes -22.0732
702
root 5.85173 16.8618 -0.970883 -1.69132 -51.6999 3.56562
lowerback 10.5309 -1.72266 -6.90805
upperback 1.46935 -2.97418 2.96195
thorax -3.85011 -1.38263 7.43937
lowerneck -13.754 -1.81796 -9.7551
upperneck 25.6981 -3.39377 10.7677
head 10.8626 -1.36288 5.13462
rclavicle 8.07066e-014 -1.35174e-014
rhumerus 4.86642 -11.5796 -66.9438
rradius 138.638
rwrist -4.61447
rhand -17.8042 23.6449
rfingers 7.12502
rthumb 8.45928 -6.16568
lclavicle 8.07066e-014 -1.35174e-014
lhumerus 13.1899 -9.87424 83.5476
lradius 126.451
lwrist -5.99191
lhand -11.7766 6.9195
lfingers 7.12502
lthumb 14.2723 36.409
rfemur -29.9172 -8.61412 6.8067
rtibia 65.9449
rfoot -15.2281 -2.13536
rtoes -11.1852
lfemur -13.5172 11.6613 -17.3728
ltibia 48.1144
lfoot -22.2822 13.1111
ltoes -21.7598
703
root 5.89254 16.8547 -0.965931 -1.82363 -52.6005 3.63261
lowerback 10.616 -1.76445 -7.06637
upperback 1.2771 -3.04886 3.12324
thorax -4.06995 -1.39935 7.72647
lowerneck -13.6412 -1.79384 -9.88365
upperneck 26.0279 -3.3753 10.7458
head 10.9619 -1.38114 5.16396
rclavicle -6.61953e-014 1.90833e-014
rhumerus 4.92015 -11.8753 -66.4839
rradius 138.973
rwrist -4.27703
rhand -17.8581 23.9067
rfingers 7.12502
rthumb 8.40727 -5.90596
lclavicle -6.61953e-014 1.90833e-014
lhumerus 13.3799 -9.33139 83.7083
lradius 126.715
lwrist -5.75896
lhand -11.4692 7.32336
lfingers 7.12502
lthumb 14.5685 36.7918
rfemur -29.6789 -9.34724 7.3964
rtibia 67.5124
rfoot -15.4614 -2.01685
rtoes -10.219
lfemur -13.3756 12.1862 -17.4591
ltibia 48.0907
lfoot -22.3579 13.2661
ltoes -21.6488
704
root 5.92874 16.845 -0.967301 -2.17066 -53.4912 3.92786
lowerback 10.5651 -1.73892 -7.14841
upperback 1.17182 -3.02215 3.11698
thorax -4.15401 -1.37654 7.76501
lowerneck -13.4868 -1.84662 -10.042
upperneck 26.2833 -3.4935 10.8511
head 11.0457 -1.45095 5.22571
rclavicle 1.65985e-014 -7.95139e-016
rhumerus 4.76356 -12.352 -66.2001
rradius 139.443
rwrist -4.13609
rhand -17.1374 23.6472
rfingers 7.12502
rthumb 9.10281 -6.13641
lclavicle 1.65985e-014 -7.95139e-016
lhumerus 13.4362 -9.15428 83.8236
lradius 126.932
lwrist -5.57706
lhand -11.5588 7.40631
lfingers 7.12502
lthumb 14.4821 36.8809
rfemur -29.3365 -10.0036 7.85353
rtibia 68.9059
rfoot -15.6983 -1.89514
rtoes -8.79863
lfemur -13.1979 12.6994 -17.6722
ltibia 48.0581
lfoot -22.5073 13.486
ltoes -21.3872
705
root 5.95992 16.8372 -0.968381 -2.55284 -54.3748 4.35997
lowerback 10.354 -1.70012 -7.31108
upperback 1.03326 -2.97486 3.14513
thorax -4.18192 -1.34329 7.87672
lowerneck -13.1756 -1.91256 -10.3033
upperneck 26.4342 -3.58211 10.8589
head 11.0559 -1.53149 5.26714
rclavicle 7.77248e-014 5.56597e-015
rhumerus 4.54676 -12.7395 -65.9159
rradius 139.881
rwrist -4.09022
rhand -16.4812 23.4666
rfingers 7.12502
rthumb 9.73587 -6.28839
lclavicle 7.77248e-014 5.56597e-015
lhumerus 13.3197 -9.14622 84.0761
lradius 127.187
lwrist -5.34732
lhand -11.9861 7.70279
lfingers 7.12502
lthumb 14.0704 37.2065
rfemur -29.0034 -10.7782 8.26879
rtibia 70.1165
rfoot -15.868 -2.0856
rtoes -9.37938
lfemur -13.0753 13.2303 -17.9923
ltibia 47.9992
lfoot -22.7409 13.7865
ltoes -20.8776
706
root 5.98714 16.8328 -0.968838 -2.80496 -55.2384 4.68818
lowerback 10.0356 -1.80426 -7.51459
upperback 0.953277 -3.11063 3.27647
thorax -4.04505 -1.41106 8.13649
lowerneck -13.0973 -1.84252 -10.5984
upperneck 26.6008 -3.41352 10.7713
head 11.0845 -1.50201 5.31459
rclavicle -1.45113e-014 3.97569e-015
rhumerus 4.6394 -12.5831 -65.7421
rradius 140.14
rwrist -4.00007
rhand -16.5087 23.5402
rfingers 7.12502
rthumb 9.70943 -6.216
lclavicle -1.45113e-014 3.97569e-015
lhumerus 13.2231 -8.68756 84.2048
lradius 127.454
lwrist -5.06559
lhand -12.0495 8.07941
lfingers 7.12502
lthumb 14.0093 37.5873
rfemur -28.5963 -11.6247 8.7352
rtibia 71.1396
rfoot -16.0968 -2.36478
rtoes -9.19968
lfemur -13.0072 13.7687 -18.2459
ltibia 47.9142
lfoot -23.0057 14.0886
ltoes -20.3483
707
root 6.01313 16.8312 -0.969448 -3.12538 -56.1049 5.05984
lowerback 9.69827 -1.96713 -7.70155
upperback 0.972244 -3.32067 3.39902
thorax -3.77778 -1.52777 8.3786
lowerneck -13.3172 -1.69317 -10.7147
upperneck 26.808 -3.0831 10.4787
head 11.1619 -1.39574 5.27732
rclavicle -7.05686e-015 6.36111e-015
rhumerus 4.90075 -12.1071 -65.6846
rradius 140.391
rwrist -3.94374
rhand -16.9107 23.4587
rfingers 7.12502
rthumb 9.32151 -6.31521
lclavicle -7.05686e-015 6.36111e-015
lhumerus 13.2156 -7.92175 84.2898
lradius 127.691
lwrist -4.80098
lhand -11.7371 8.04808
lfingers 7.12502
lthumb 14.3104 37.5349
rfemur -28.0319 -12.308 9.08357
rtibia 71.964
rfoot -16.5743 -2.41858
rtoes -7.2557
lfemur -12.9015 14.2925 -18.5304
ltibia 47.8037
lfoot -23.1875 14.5813
ltoes -20.529
708
root 6.03519 16.8327 -0.970178 -3.49001 -57.0191 5.55815
lowerback 9.26159 -2.03866 -7.81181
upperback 0.982307 -3.39617 3.41117
thorax -3.50103 -1.57915 8.43442
lowerneck -13.5045 -1.60292 -10.7544
upperneck 26.9016 -2.87667 10.2851
head 11.2069 -1.32608 5.24297
rclavicle -1.74931e-014 -2.78299e-014
rhumerus 4.95472 -11.8419 -65.6436
rradius 140.708
rwrist -4.07241
rhand -17.1441 23.3934
rfingers 7.12502
rthumb 9.09626 -6.39043
lclavicle -1.74931e-014 -2.78299e-014
lhumerus 13.1496 -7.46317 84.447
lradius 127.896
lwrist -4.65445
lhand -11.672 8.02677
lfingers 7.12502
lthumb 14.3731 37.5092
rfemur -27.4918 -12.8834 9.3485
rtibia 72.5691
rfoot -17.1117 -2.69376
rtoes -4.92166
lfemur -12.8442 14.854 -18.9004
ltibia 47.683
lfoot -23.2886 15.1919
ltoes -21.2849
709
root 6.05205 16.8365 -0.973908 -3.80218 -57.9227 5.99974
lowerback 8.84662 -2.05457 -7.86411
upperback 1.00688 -3.39245 3.41449
thorax -3.24076 -1.5916 8.43993
lowerneck -13.8908 -1.58123 -10.833
upperneck 27.0878 -2.76567 10.1731
head 11.3424 -1.29111 5.24059
rclavicle 4.63168e-014 -1.43125e-014
rhumerus 4.87054 -11.6766 -65.6302
rradius 140.999
rwrist -4.04681
rhand -17.2757 23.5115
rfingers 7.12502
rthumb 8.96934 -6.27781
lclavicle 4.63168e-014 -1.43125e-014
lhumerus 13.0802 -7.1684 84.6887
lradius 128.029
lwrist -4.58022
lhand -11.7132 8.00668
lfingers 7.12502
lthumb 14.3333 37.4919
rfemur -26.9087 -13.515 9.70763
rtibia 72.9095
rfoot -17.5432 -3.22492
rtoes -4.4297
lfemur -12.8024 15.3571 -19.2082
ltibia 47.5806
lfoot -23.4773 15.6685
ltoes -21.0946
710
root 6.06886 16.8377 -0.980675 -4.11431 -58.7496 6.38453
lowerback 8.56314 -2.05833 -7.79325
upperback 1.01816 -3.37094 3.39203
thorax -3.08039 -1.59066 8.35394
lowerneck -14.3172 -1.56962 -10.8335
upperneck 27.3087 -2.67038 10.0064
head 11.5005 -1.2619 5.20343
rclavicle 7.69297e-014 6.36111e-015
rhumerus 4.67017 -11.3468 -65.7288
rradius 141.257
rwrist -3.70242
rhand -17.2881 23.5392
rfingers 7.12502
rthumb 8.95738 -6.25068
lclavicle 7.69297e-014 6.36111e-015
lhumerus 12.904 -6.95519 84.869
lradius 128.216
lwrist -4.57314
lhand -11.9006 8.03859
lfingers 7.12502
lthumb 14.1528 37.5365
rfemur -26.1904 -14.184 10.063
rtibia 72.9851
rfoot -17.8126 -3.13272
rtoes -3.8318
lfemur -12.7699 15.598 -19.4879
ltibia 47.5377
lfoot -23.736 16.1511
ltoes -20.3548
